<?xml version="1.0" encoding="UTF-8" standalone="no"?>
<!DOCTYPE svg PUBLIC "-//W3C//DTD SVG 1.1//EN" "http://www.w3.org/Graphics/SVG/1.1/DTD/svg11.dtd">
<svg width="100%" height="100%" viewBox="0 0 1080 1080" version="1.1" xmlns="http://www.w3.org/2000/svg" xmlns:xlink="http://www.w3.org/1999/xlink" xml:space="preserve" xmlns:serif="http://www.serif.com/" style="fill-rule:evenodd;clip-rule:evenodd;stroke-linejoin:round;stroke-miterlimit:2;">
    <g id="图层1" transform="matrix(1,0,0,1,-62.9313,47.8774)">
        <g transform="matrix(1,0,0,1,11.162,-121.093)">
            <path d="M448.595,387.841C471.442,348.424 521.328,305.49 588.119,305.49C654.91,305.49 707.217,336.797 730.064,376.214C779.992,362.901 829.911,361.09 875.191,411.061C911.505,451.135 917.181,528.962 890.919,545.182C929.263,568.659 934.464,654.708 901.068,697.244C867.673,739.781 829.131,751.754 771.289,746.596C743.092,788.088 698.822,826.444 632.031,826.444C565.24,826.444 482.537,795.026 456.461,748.54C398.618,753.698 377.889,764.613 335.631,730.866C303.512,705.218 299.68,645.809 334.675,611.55C299.68,577.292 273.622,520.928 308.245,453.132C336.777,397.264 390.753,382.683 448.595,387.841Z" style="fill:rgb(178,190,195);"/>
        </g>
        <g transform="matrix(1,0,0,1,9.28502,-41.0459)">
            <ellipse cx="374.414" cy="746.397" rx="71.319" ry="41.046" style="fill:rgb(178,190,195);"/>
        </g>
        <g transform="matrix(1,0,0,1,-12.5965,-61.7846)">
            <ellipse cx="315.691" cy="834.907" rx="31.597" ry="26.726" style="fill:rgb(178,190,195);"/>
        </g>
    </g>
</svg>
