<?xml version="1.0" encoding="UTF-8" standalone="no"?>
<!DOCTYPE svg PUBLIC "-//W3C//DTD SVG 1.1//EN" "http://www.w3.org/Graphics/SVG/1.1/DTD/svg11.dtd">
<svg width="100%" height="100%" viewBox="0 0 1080 1080" version="1.1" xmlns="http://www.w3.org/2000/svg" xmlns:xlink="http://www.w3.org/1999/xlink" xml:space="preserve" xmlns:serif="http://www.serif.com/" style="fill-rule:evenodd;clip-rule:evenodd;stroke-linecap:round;stroke-linejoin:round;stroke-miterlimit:0.813953;">
    <g id="图层1" transform="matrix(1,0,0,1,0,-29.847)">
        <g transform="matrix(0.919537,9.43032e-18,-9.43032e-18,-0.842533,-17.9572,1198.25)">
            <path d="M874.366,887.462L836.605,366.355C835.263,347.836 821.102,333.555 804.081,333.555L409.46,333.555C392.439,333.555 378.278,347.837 376.937,366.357L339.196,887.462L874.366,887.462ZM629.437,438.706L629.437,782.47C629.437,796.037 619.36,807.035 606.929,807.035L606.738,807.035C600.74,807.035 594.988,804.435 590.748,799.807C586.507,795.178 584.124,788.901 584.124,782.355L584.124,438.71C584.124,425.054 594.268,413.983 606.781,413.983L606.784,413.983C619.295,413.983 629.437,425.051 629.437,438.706ZM724.071,783.606L707.521,440.008C706.864,426.38 716.47,414.734 728.957,414.017C741.444,413.301 752.115,423.784 752.771,437.412L769.321,781.01C769.977,794.638 760.372,806.284 747.885,807.001C735.398,807.717 724.727,797.234 724.071,783.606ZM444.24,781.01L460.79,437.412C461.447,423.784 472.117,413.301 484.605,414.017C497.092,414.734 506.697,426.38 506.04,440.008L489.49,783.606C488.834,797.234 478.163,807.717 465.676,807.001C453.189,806.284 443.584,794.638 444.24,781.01Z" style="fill:rgb(178,190,195);"/>
        </g>
        <g transform="matrix(1.01947,0,0,1.32195,-15.302,14.7647)">
            <path d="M786.054,303.578L303.343,303.578C303.343,303.578 323.684,242.436 333.872,211.814C337.211,201.778 348.941,194.76 362.376,194.76L727.021,194.76C740.456,194.76 752.186,201.778 755.525,211.814C765.713,242.436 786.054,303.578 786.054,303.578Z" style="fill:rgb(178,190,195);"/>
        </g>
        <g transform="matrix(0.634569,0,0,1.0071,174.213,47.8199)">
            <path d="M711.258,222.827C711.258,250.092 676.126,272.228 632.855,272.228L520.013,272.228C476.741,272.228 441.61,250.092 441.61,222.827C441.61,195.561 476.741,173.425 520.013,173.425L632.855,173.425C676.126,173.425 711.258,195.561 711.258,222.827Z" style="fill:none;stroke:rgb(178,190,195);stroke-width:49.5px;"/>
        </g>
    </g>
</svg>
