<?xml version="1.0" encoding="UTF-8" standalone="no"?>
<!DOCTYPE svg PUBLIC "-//W3C//DTD SVG 1.1//EN" "http://www.w3.org/Graphics/SVG/1.1/DTD/svg11.dtd">
<svg width="100%" height="100%" viewBox="0 0 1080 1080" version="1.1" xmlns="http://www.w3.org/2000/svg" xmlns:xlink="http://www.w3.org/1999/xlink" xml:space="preserve" xmlns:serif="http://www.serif.com/" style="fill-rule:evenodd;clip-rule:evenodd;stroke-linejoin:round;stroke-miterlimit:2;">
    <g transform="matrix(4.89433,0,0,4.89433,-2365.43,-896.273)">
        <path d="M595.788,222.112C581.284,222.112 569.916,226.228 561.488,234.46C553.869,241.733 548.975,251.424 548.916,263.621C548.908,265.311 552.145,272.738 559.692,272.834C568.834,272.95 571.163,265.128 571.308,263.533C571.842,257.659 573.371,252.901 575.992,249.356C579.716,243.868 585.792,241.32 594.416,241.32C601.08,241.32 606.372,243.084 610.096,246.808C613.624,250.532 615.584,255.628 615.584,262.096C615.584,266.996 613.82,271.7 610.292,276.012L607.94,278.756C595.2,290.124 587.556,298.356 585.008,303.648C582.264,308.94 581.103,312.154 581.103,319.602C581.103,319.602 581.698,327.374 591.848,327.76C604.484,328.241 603.14,320.617 603.14,320.617C603.14,315.913 604.608,314.036 606.568,310.116C608.332,306.588 610.88,303.256 614.408,300.316C623.816,292.084 629.5,286.792 631.264,284.832C635.968,278.56 638.516,270.524 638.516,260.724C638.516,248.768 634.596,239.36 626.756,232.5C618.916,225.444 608.528,222.112 595.788,222.112ZM592.26,335.204C587.948,335.204 584.42,336.576 581.48,339.32C578.54,342.064 577.168,345.592 577.168,349.904C577.168,354.216 578.54,357.744 581.48,360.488C584.42,363.232 587.948,364.8 592.26,364.8C596.572,364.8 600.1,363.428 603.04,360.684C605.98,357.94 607.548,354.216 607.548,349.904C607.548,345.592 605.98,342.064 603.236,339.32C600.296,336.576 596.572,335.204 592.26,335.204Z" style="fill:rgb(253,203,110);fill-rule:nonzero;"/>
    </g>
</svg>
