<?xml version="1.0" encoding="UTF-8" standalone="no"?>
<!DOCTYPE svg PUBLIC "-//W3C//DTD SVG 1.1//EN" "http://www.w3.org/Graphics/SVG/1.1/DTD/svg11.dtd">
<svg width="100%" height="100%" viewBox="0 0 1080 1080" version="1.1" xmlns="http://www.w3.org/2000/svg" xmlns:xlink="http://www.w3.org/1999/xlink" xml:space="preserve" xmlns:serif="http://www.serif.com/" style="fill-rule:evenodd;clip-rule:evenodd;stroke-linecap:round;stroke-linejoin:round;stroke-miterlimit:0.813953;">
    <g id="图层3" transform="matrix(1.42783,0,0,1.42783,-175.045,-126.415)">
        <g id="图层1" transform="matrix(1,0,0,1,0,105.033)">
            <g>
                <g transform="matrix(0.179867,-0.983691,0.983691,0.179867,6.06101,754.393)">
                    <path d="M382.717,192.109L382.717,506.915C382.717,506.915 373.876,498.341 357.96,501.104C346.653,503.068 340.086,510.75 336.205,515.386C333.682,518.397 331.955,519.308 331.955,519.308L331.955,204.502C331.955,204.502 331.132,194.172 356.588,187.039C371.823,182.77 382.717,192.109 382.717,192.109Z" style="fill:rgb(178,190,195);"/>
                </g>
                <g transform="matrix(0.179867,-0.983691,0.983691,0.179867,180.043,649.099)">
                    <path d="M381.831,191.114C382.402,191.755 382.717,192.584 382.717,193.442C382.717,213.256 382.717,448.03 382.717,497.715C382.717,499.168 381.819,500.471 380.461,500.988C379.103,501.505 377.566,501.129 376.6,500.043C350.193,470.381 247.307,354.808 247.307,354.808L247.307,40.003C247.307,40.003 370.167,178.012 381.831,191.114Z" style="fill:rgb(178,190,195);"/>
                </g>
                <g transform="matrix(1,0,0,1.95891,8.92399,-591.359)">
                    <path d="M726.605,488.944C710.475,500.675 711.26,509.452 726.605,515.686L567.683,566.742C567.683,566.742 553.678,562.248 554.464,552.795C555.08,545.391 567.683,540 567.683,540L726.605,488.944Z" style="fill:white;stroke:rgb(178,190,195);stroke-width:2.73px;"/>
                </g>
            </g>
        </g>
        <g id="图层11" serif:id="图层1" transform="matrix(1,0,0,1,0,52.5165)">
            <g>
                <g transform="matrix(0.179867,-0.983691,0.983691,0.179867,6.06101,754.393)">
                    <path d="M382.717,192.109L382.717,506.915C382.717,506.915 373.876,498.341 357.96,501.104C346.653,503.068 340.086,510.75 336.205,515.386C333.682,518.397 331.955,519.308 331.955,519.308L331.955,204.502C331.955,204.502 331.132,194.172 356.588,187.039C371.823,182.77 382.717,192.109 382.717,192.109Z" style="fill:rgb(253,203,110);"/>
                </g>
                <g transform="matrix(0.179867,-0.983691,0.983691,0.179867,180.043,649.099)">
                    <path d="M381.831,191.114C382.402,191.755 382.717,192.584 382.717,193.442C382.717,213.256 382.717,448.03 382.717,497.715C382.717,499.168 381.819,500.471 380.461,500.988C379.103,501.505 377.566,501.129 376.6,500.043C350.193,470.381 247.307,354.808 247.307,354.808L247.307,40.003C247.307,40.003 370.167,178.012 381.831,191.114Z" style="fill:rgb(253,203,110);"/>
                </g>
                <g transform="matrix(1,0,0,1.95891,8.92399,-591.359)">
                    <path d="M726.605,488.944C710.475,500.675 711.26,509.452 726.605,515.686L567.683,566.742C567.683,566.742 553.678,562.248 554.464,552.795C555.08,545.391 567.683,540 567.683,540L726.605,488.944Z" style="fill:white;stroke:rgb(253,203,110);stroke-width:2.73px;"/>
                </g>
            </g>
        </g>
        <g>
            <g id="图层12" serif:id="图层1">
                <g transform="matrix(0.179867,-0.983691,0.983691,0.179867,6.06101,754.393)">
                    <path d="M382.717,192.109L382.717,506.915C382.717,506.915 373.876,498.341 357.96,501.104C346.653,503.068 340.086,510.75 336.205,515.386C333.682,518.397 331.955,519.308 331.955,519.308L331.955,204.502C331.955,204.502 331.132,194.172 356.588,187.039C371.823,182.77 382.717,192.109 382.717,192.109Z" style="fill:rgb(45,52,54);"/>
                </g>
                <g transform="matrix(0.179867,-0.983691,0.983691,0.179867,180.043,649.099)">
                    <path d="M381.831,191.114C382.402,191.755 382.717,192.584 382.717,193.442C382.717,213.256 382.717,448.03 382.717,497.715C382.717,499.168 381.819,500.471 380.461,500.988C379.103,501.505 377.566,501.129 376.6,500.043C350.193,470.381 247.307,354.808 247.307,354.808L247.307,40.003C247.307,40.003 370.167,178.012 381.831,191.114Z" style="fill:rgb(45,52,54);"/>
                </g>
                <g transform="matrix(1,0,0,1.95891,8.92399,-591.359)">
                    <path d="M726.605,488.944C710.475,500.675 711.26,509.452 726.605,515.686L567.683,566.742C567.683,566.742 553.678,562.248 554.464,552.795C555.08,545.391 567.683,540 567.683,540L726.605,488.944Z" style="fill:white;stroke:rgb(45,52,54);stroke-width:2.73px;"/>
                </g>
            </g>
        </g>
        <g id="图层2" transform="matrix(0.18439,-0.982853,0.982853,0.18439,114.317,768.683)">
            <g>
                <g transform="matrix(0.998125,-0.00738008,0.00739374,0.999973,-77.197,77.5119)">
                    <path d="M563.356,172.327L563.356,229.051L495.601,153.758L495.601,97.034L563.356,172.327Z" style="fill:white;"/>
                </g>
                <g transform="matrix(0.18429,0.956577,-0.982871,0.179562,596.664,-382.338)">
                    <path d="M440.157,307.439L735.529,361.7" style="fill:none;stroke:white;stroke-width:4.32px;"/>
                </g>
            </g>
        </g>
    </g>
</svg>
