<?xml version="1.0" encoding="UTF-8" standalone="no"?>
<!DOCTYPE svg PUBLIC "-//W3C//DTD SVG 1.1//EN" "http://www.w3.org/Graphics/SVG/1.1/DTD/svg11.dtd">
<svg width="100%" height="100%" viewBox="0 0 1080 1080" version="1.1" xmlns="http://www.w3.org/2000/svg" xmlns:xlink="http://www.w3.org/1999/xlink" xml:space="preserve" xmlns:serif="http://www.serif.com/" style="fill-rule:evenodd;clip-rule:evenodd;stroke-linejoin:round;stroke-miterlimit:2;">
    <g id="图层4" transform="matrix(0.866025,0.5,-0.5,0.866025,287.319,-102.343)">
        <path d="M413.114,441.283L413.114,155.329C413.114,120.811 441.096,92.829 475.614,92.829L604.386,92.829C638.904,92.829 666.886,120.811 666.886,155.329L666.886,292.996C666.886,292.996 664.47,320.81 635.636,321.191C607.589,321.561 604.386,291.865 604.386,291.865L604.386,155.329L475.614,155.329L475.614,441.283L560.01,441.283C560.01,441.283 586.993,445.516 587.57,471.602C588.155,498.056 560.613,503.783 560.613,503.783L475.614,503.783C441.096,503.783 413.114,475.801 413.114,441.283Z" style="fill:rgb(178,190,195);"/>
        <g transform="matrix(-1,0,0,-1,1080,846.271)">
            <path d="M412.962,441.505L413.114,141.71C413.114,107.192 441.096,79.21 475.614,79.21L604.386,79.21C638.904,79.21 666.886,107.192 666.886,141.71L666.886,290.117C666.886,290.117 664.47,317.931 635.636,318.311C607.589,318.682 604.386,288.986 604.386,288.986L604.386,141.71L475.614,141.71L475.462,441.505L559.858,441.505C559.858,441.505 586.841,445.738 587.418,471.824C588.003,498.278 560.461,504.005 560.461,504.005L475.462,504.005C440.944,504.005 412.962,476.023 412.962,441.505Z" style="fill:rgb(178,190,195);"/>
        </g>
    </g>
</svg>
