<?xml version="1.0" encoding="UTF-8" standalone="no"?>
<!DOCTYPE svg PUBLIC "-//W3C//DTD SVG 1.1//EN" "http://www.w3.org/Graphics/SVG/1.1/DTD/svg11.dtd">
<svg width="100%" height="100%" viewBox="0 0 1080 1080" version="1.1" xmlns="http://www.w3.org/2000/svg" xmlns:xlink="http://www.w3.org/1999/xlink" xml:space="preserve" xmlns:serif="http://www.serif.com/" style="fill-rule:evenodd;clip-rule:evenodd;stroke-linejoin:round;stroke-miterlimit:2;">
    <g id="图层1" transform="matrix(1,0,0,1,0,105.574)">
        <g transform="matrix(0.892682,0,0,0.965491,9.9625,54.2976)">
            <path d="M849.875,704.486L337.642,704.486C337.642,704.486 362.423,398.416 372.179,277.916C374.368,250.89 398.722,229.995 428.034,229.995L759.483,229.995C788.795,229.995 813.149,250.89 815.338,277.916C825.094,398.416 849.875,704.486 849.875,704.486Z" style="fill:rgb(253,203,110);"/>
        </g>
        <g transform="matrix(0.966727,0,0,1,12.1116,0)">
            <path d="M832.203,749.236C832.203,772.383 812.763,791.176 788.819,791.176L303.296,791.176C279.351,791.176 259.912,772.383 259.912,749.236C259.912,726.088 279.351,707.295 303.296,707.295L788.819,707.295C812.763,707.295 832.203,726.088 832.203,749.236Z" style="fill:rgb(178,190,195);"/>
        </g>
        <g transform="matrix(0.760715,0,0,0.891624,129.089,-96.2738)">
            <path d="M580.809,201.595C580.798,201.865 580.786,202.167 580.778,202.432C580.119,223.635 581.076,323.417 581.076,323.417C581.259,342.759 563.001,358.589 540.331,358.744C517.66,358.9 499.106,343.323 498.924,323.981C498.924,323.981 497.979,222.201 498.652,200.574L499.946,189.737L504.466,179.968C515.841,163.236 540.997,157.53 560.609,167.234C575.187,174.448 582.624,188.159 580.809,201.595Z" style="fill:rgb(253,203,110);"/>
        </g>
        <g transform="matrix(0.561135,0.323971,-0.413352,0.715946,578.654,-188.57)">
            <path d="M587.961,201.593C587.95,201.862 587.938,202.161 587.93,202.423C587.271,223.628 588.228,323.419 588.228,323.419C588.425,344.282 566.975,361.344 540.357,361.499C513.739,361.653 491.969,344.841 491.772,323.979C491.772,323.979 490.827,222.208 491.5,200.582L492.79,189.778L497.435,179.776C509.952,161.364 539.186,154.38 562.678,164.19C580.556,171.656 589.989,186.71 587.961,201.593Z" style="fill:rgb(253,203,110);"/>
        </g>
        <g transform="matrix(-0.481656,-0.124791,0.412633,0.714702,458.41,54.0988)">
            <path d="M627.882,237.407C630.977,220.369 602.499,191.241 559.499,168.867C512.084,144.195 464.851,137.018 454.089,152.849C452.836,154.693 451.905,286.609 451.905,286.609C452.103,307.592 491.738,341.247 540.359,361.717C588.98,382.188 628.293,381.772 628.095,360.789C628.095,360.789 627.141,260.544 627.803,239.243C627.823,238.601 627.858,237.869 627.882,237.407Z" style="fill:rgb(253,203,110);"/>
        </g>
    </g>
</svg>
