<?xml version="1.0" encoding="UTF-8" standalone="no"?>
<!DOCTYPE svg PUBLIC "-//W3C//DTD SVG 1.1//EN" "http://www.w3.org/Graphics/SVG/1.1/DTD/svg11.dtd">
<svg width="100%" height="100%" viewBox="0 0 1080 1080" version="1.1" xmlns="http://www.w3.org/2000/svg" xmlns:xlink="http://www.w3.org/1999/xlink" xml:space="preserve" xmlns:serif="http://www.serif.com/" style="fill-rule:evenodd;clip-rule:evenodd;stroke-linejoin:round;stroke-miterlimit:2;">
    <g id="图层1" transform="matrix(1,0,0,-1,0,1061.36)">
        <g transform="matrix(0.753646,0,0,0.765282,77.7398,225.103)">
            <path d="M672.817,299.303C643.64,336.541 616.5,387.139 599.956,458.321C569.007,591.485 630.81,751.067 630.81,751.067C630.81,751.067 558.641,739.213 532.348,733.653C487.35,724.138 434.709,693.197 434.709,693.197L216.933,693.479L216.933,294.101L493.56,295.997C521.279,245.574 539.967,232.449 542.213,192.262C543.285,173.081 543.769,141.828 533.793,108.471C515.297,46.632 531.158,-3.43 613.365,32.162C662.327,53.361 685.195,116.498 689.678,133.792C696.809,161.291 698.816,191.292 695.723,218.932C692.631,246.571 680.323,276.169 671.122,299.629C671.684,299.52 672.249,299.411 672.817,299.303ZM658.256,752.13C658.256,752.13 601.14,565.901 626.774,464.924C647.846,381.916 666.627,344.588 702.472,308.822C702.472,308.822 767.123,283.61 822.122,283.753C881.123,283.906 944.787,301.731 962.141,327.522C1001.79,386.448 1015.33,453.259 1007.82,532.686C1002.29,591.125 1010.21,687.77 950.168,745.069C925.404,768.7 874.661,782.209 810.121,777.301C755.59,773.155 658.256,752.13 658.256,752.13Z" style="fill:rgb(253,203,110);"/>
        </g>
        <g transform="matrix(1,0,0,1,13.1469,3.84472)">
            <path d="M560.685,796.849C560.685,796.849 517.64,654.332 536.959,577.056C552.84,513.532 566.994,484.965 594.008,457.594C594.008,457.594 642.732,438.3 684.182,438.409C728.648,438.527 776.628,452.167 789.706,471.904C819.587,517 829.79,568.129 824.129,628.913C819.963,673.635 825.936,747.596 780.683,791.446C762.02,809.53 723.777,819.868 675.137,816.113C634.04,812.94 560.685,796.849 560.685,796.849Z" style="fill:none;"/>
        </g>
    </g>
</svg>
