<?xml version="1.0" encoding="UTF-8" standalone="no"?>
<!DOCTYPE svg PUBLIC "-//W3C//DTD SVG 1.1//EN" "http://www.w3.org/Graphics/SVG/1.1/DTD/svg11.dtd">
<svg width="100%" height="100%" viewBox="0 0 1080 1080" version="1.1" xmlns="http://www.w3.org/2000/svg" xmlns:xlink="http://www.w3.org/1999/xlink" xml:space="preserve" xmlns:serif="http://www.serif.com/" style="fill-rule:evenodd;clip-rule:evenodd;stroke-linejoin:round;stroke-miterlimit:2;">
    <g id="图层1" transform="matrix(0.98021,0.197959,-0.197959,0.98021,85.9432,-29.815)">
        <g transform="matrix(0.969335,-0.245743,0.236081,0.931224,-150.473,70.1045)">
            <path d="M693.843,242.782C696.962,238.724 702.478,237.682 706.768,240.34C711.058,242.999 712.806,248.543 710.865,253.331C660.5,377.572 559.949,625.611 559.949,625.611C559.949,625.611 454.566,639.99 405.478,646.688C401.432,647.24 397.47,645.178 395.466,641.478C393.463,637.777 393.82,633.181 396.369,629.864C447.666,563.115 613.153,347.779 693.843,242.782Z" style="fill:rgb(253,203,110);"/>
        </g>
        <g transform="matrix(-0.969335,0.245743,-0.236081,-0.931224,1266.22,867.203)">
            <path d="M693.843,242.782C696.962,238.724 702.478,237.682 706.768,240.34C711.058,242.999 712.806,248.543 710.865,253.331C660.5,377.572 559.949,625.611 559.949,625.611C559.949,625.611 454.566,639.99 405.478,646.688C401.432,647.24 397.47,645.178 395.466,641.478C393.463,637.777 393.82,633.181 396.369,629.864C447.666,563.115 613.153,347.779 693.843,242.782Z" style="fill:rgb(253,203,110);"/>
        </g>
        <g transform="matrix(0.991064,0.133386,-0.133386,0.991064,70.5658,-66.2431)">
            <path d="M575.276,411.396L578.245,478.98L578.16,493.616L540.779,514.643L540.022,431.228L575.276,411.396Z" style="fill:rgb(253,203,110);"/>
        </g>
    </g>
</svg>
