<?xml version="1.0" encoding="UTF-8" standalone="no"?>
<!DOCTYPE svg PUBLIC "-//W3C//DTD SVG 1.1//EN" "http://www.w3.org/Graphics/SVG/1.1/DTD/svg11.dtd">
<svg width="100%" height="100%" viewBox="0 0 1080 1080" version="1.1" xmlns="http://www.w3.org/2000/svg" xmlns:xlink="http://www.w3.org/1999/xlink" xml:space="preserve" xmlns:serif="http://www.serif.com/" style="fill-rule:evenodd;clip-rule:evenodd;stroke-linejoin:round;stroke-miterlimit:2;">
    <g id="图层1" transform="matrix(10.8,0,0,10.8,-49.4385,-1.55518)">
        <g transform="matrix(0.0827687,0,0,0.0925926,9.36496,2.60143)">
            <path d="M894.04,414.488L894.04,743.916C894.04,770.54 869.859,792.156 840.074,792.156L252.432,792.156C222.648,792.156 198.466,770.54 198.466,743.916L198.466,414.488L894.04,414.488Z" style="fill:white;"/>
        </g>
        <g transform="matrix(0.0827687,0,0,0.0925926,9.36496,2.60143)">
            <path d="M917.346,414.488L917.346,743.916C917.346,782.039 882.722,812.99 840.074,812.99L252.432,812.99C209.785,812.99 175.16,782.039 175.16,743.916L175.16,414.488C175.16,402.983 185.595,393.655 198.466,393.655L894.04,393.655C906.912,393.655 917.346,402.983 917.346,414.488ZM894.04,414.488L198.466,414.488L198.466,743.916C198.466,770.54 222.648,792.156 252.432,792.156L840.074,792.156C869.859,792.156 894.04,770.54 894.04,743.916L894.04,414.488Z" style="fill:rgb(178,190,195);stroke:rgb(178,190,195);stroke-width:1.05px;"/>
        </g>
        <g transform="matrix(0.0913853,0,0,0.0863659,4.8291,1.40441)">
            <path d="M880.486,296.968L880.486,458.231L208.279,458.231L208.279,296.968C208.279,267.3 231.043,243.213 259.081,243.213L829.684,243.213C857.722,243.213 880.486,267.3 880.486,296.968Z" style="fill:rgb(253,203,110);"/>
        </g>
    </g>
    <g id="图层2">
        <g transform="matrix(1,0,0,1,50.231,28.1368)">
            <circle cx="359.033" cy="315.103" r="28.137" style="fill:white;"/>
        </g>
        <g transform="matrix(1,0,0,1,311.704,28.1368)">
            <circle cx="359.033" cy="315.103" r="28.137" style="fill:white;"/>
        </g>
        <g transform="matrix(1,0,0,1.18078,10.9012,-57.8476)">
            <path d="M383.314,319.547C379.463,312.495 376.712,303.615 377.077,292.816C377.541,279.067 385.363,263.394 391.859,252.645L415.511,252.645C410.287,259.901 398.419,277.998 397.901,293.321C397.558,303.47 401.13,311.173 405.099,316.54C409.79,322.883 415.037,325.963 415.037,325.963L403.49,340.649C403.49,340.649 391.134,333.869 383.314,319.547Z" style="fill:white;"/>
        </g>
        <g transform="matrix(1,0,0,1.18078,272.257,-57.8476)">
            <path d="M383.34,319.596C379.476,312.536 376.711,303.64 377.077,292.816C377.541,279.067 385.363,263.394 391.859,252.645L415.511,252.645C410.287,259.901 398.419,277.998 397.901,293.321C397.559,303.452 401.117,311.146 405.078,316.512C409.774,322.874 415.037,325.963 415.037,325.963L403.49,340.649C403.49,340.649 391.162,333.884 383.34,319.596Z" style="fill:white;"/>
        </g>
    </g>
    <g id="图层3" transform="matrix(1,0,0,0.919421,21.2117,61.6605)">
        <g transform="matrix(1.75414,0,0,1.24655,-287.423,-116.627)">
            <path d="M381.127,518.457L424.776,473.043L424.776,705.616" style="fill:none;stroke:rgb(45,52,54);stroke-width:14.06px;stroke-linecap:round;stroke-miterlimit:0.813953;"/>
        </g>
        <g transform="matrix(1.37297,0,0,1.34759,-194.54,-164.427)">
            <path d="M521.594,473.043L619.816,473.043C619.816,473.043 573.094,553.852 565.13,688.177" style="fill:none;stroke:rgb(45,52,54);stroke-width:15.93px;stroke-linecap:round;stroke-miterlimit:0.813953;"/>
        </g>
    </g>
</svg>
