<?xml version="1.0" encoding="UTF-8" standalone="no"?>
<!DOCTYPE svg PUBLIC "-//W3C//DTD SVG 1.1//EN" "http://www.w3.org/Graphics/SVG/1.1/DTD/svg11.dtd">
<svg width="100%" height="100%" viewBox="0 0 1080 1080" version="1.1" xmlns="http://www.w3.org/2000/svg" xmlns:xlink="http://www.w3.org/1999/xlink" xml:space="preserve" xmlns:serif="http://www.serif.com/" style="fill-rule:evenodd;clip-rule:evenodd;stroke-linejoin:round;stroke-miterlimit:2;">
    <g transform="matrix(1,0,0,1.10922,2.90139,-29.5885)">
        <g id="图层2">
            <path d="M800.228,368.282L800.228,368.893L600.375,368.893L600.375,190.02L800.228,368.282ZM801.395,406.457L801.395,815.997C801.395,829.148 789.553,839.824 774.966,839.824L299.232,839.824C284.645,839.824 272.802,829.148 272.802,815.997L272.802,211.01C272.802,197.86 284.645,187.183 299.232,187.183L558.708,187.183L558.708,387.675C558.708,398.048 568.035,406.457 579.541,406.457L801.395,406.457Z" style="fill:rgb(64,115,210);"/>
        </g>
    </g>
    <g transform="matrix(1,0,0,1,-141.703,123.508)">
        <g id="图层3">
            <g>
                <path d="M463.096,419.035L518.129,419.035C530.54,419.035 540,419.984 546.511,421.883C555.259,424.46 562.753,429.038 568.992,435.616C575.231,442.194 579.978,450.247 583.233,459.776C586.489,469.304 588.116,481.053 588.116,495.023C588.116,507.298 586.59,517.878 583.539,526.762C579.809,537.612 574.485,546.395 567.568,553.109C562.346,558.195 555.293,562.162 546.409,565.01C539.763,567.113 530.879,568.164 519.757,568.164L463.096,568.164L463.096,419.035ZM493.207,444.263L493.207,543.038L515.688,543.038C524.097,543.038 530.167,542.563 533.897,541.614C538.779,540.393 542.831,538.325 546.053,535.408C549.274,532.492 551.902,527.694 553.937,521.014C555.971,514.334 556.988,505.23 556.988,493.701C556.988,482.172 555.971,473.322 553.937,467.151C551.902,460.979 549.054,456.164 545.392,452.706C541.729,449.247 537.084,446.907 531.455,445.687C527.251,444.737 519.011,444.263 506.736,444.263L493.207,444.263Z" style="fill:white;fill-rule:nonzero;stroke:white;stroke-width:1px;"/>
                <path d="M607.546,494.515C607.546,479.324 609.818,466.574 614.361,456.266C617.752,448.671 622.381,441.855 628.247,435.819C634.113,429.784 640.539,425.308 647.524,422.392C656.815,418.458 667.53,416.492 679.669,416.492C701.642,416.492 719.223,423.307 732.413,436.938C745.604,450.57 752.199,469.524 752.199,493.803C752.199,517.878 745.655,536.714 732.566,550.311C719.477,563.908 701.981,570.707 680.076,570.707C657.9,570.707 640.267,563.942 627.179,550.413C614.09,536.883 607.546,518.251 607.546,494.515ZM638.572,493.498C638.572,510.384 642.471,523.184 650.27,531.899C658.069,540.613 667.971,544.971 679.974,544.971C691.978,544.971 701.828,540.647 709.525,532.001C717.222,523.354 721.071,510.384 721.071,493.091C721.071,476.001 717.324,463.251 709.83,454.842C702.337,446.433 692.385,442.228 679.974,442.228C667.564,442.228 657.561,446.484 649.965,454.995C642.37,463.506 638.572,476.34 638.572,493.498Z" style="fill:white;fill-rule:nonzero;stroke:white;stroke-width:1px;"/>
                <path d="M871.116,513.334L900.311,522.591C895.835,538.867 888.392,550.955 877.982,558.856C867.572,566.757 854.365,570.707 838.36,570.707C818.558,570.707 802.282,563.942 789.532,550.413C776.783,536.883 770.408,518.386 770.408,494.922C770.408,470.101 776.817,450.824 789.634,437.091C802.451,423.358 819.304,416.492 840.191,416.492C858.434,416.492 873.252,421.883 884.645,432.666C891.427,439.041 896.513,448.196 899.904,460.132L870.099,467.252C868.335,459.521 864.656,453.418 859.061,448.942C853.467,444.466 846.668,442.228 838.666,442.228C827.611,442.228 818.643,446.195 811.759,454.13C804.876,462.064 801.434,474.916 801.434,492.684C801.434,511.537 804.825,524.965 811.607,532.967C818.388,540.969 827.204,544.971 838.055,544.971C846.058,544.971 852.941,542.427 858.705,537.341C864.47,532.255 868.607,524.253 871.116,513.334Z" style="fill:white;fill-rule:nonzero;stroke:white;stroke-width:1px;"/>
            </g>
        </g>
    </g>
</svg>
