<?xml version="1.0" encoding="UTF-8" standalone="no"?>
<!DOCTYPE svg PUBLIC "-//W3C//DTD SVG 1.1//EN" "http://www.w3.org/Graphics/SVG/1.1/DTD/svg11.dtd">
<svg width="100%" height="100%" viewBox="0 0 1080 1080" version="1.1" xmlns="http://www.w3.org/2000/svg" xmlns:xlink="http://www.w3.org/1999/xlink" xml:space="preserve" xmlns:serif="http://www.serif.com/" style="fill-rule:evenodd;clip-rule:evenodd;stroke-linejoin:round;stroke-miterlimit:2;">
    <g id="图层1">
        <g transform="matrix(1,0,0,1,-69.6317,27.8023)">
            <path d="M920.277,336.669L920.277,776.246C920.277,801.964 899.398,822.843 873.68,822.843L345.583,822.843C319.866,822.843 298.986,801.964 298.986,776.246L298.986,248.149C298.986,222.432 319.866,201.552 345.583,201.552L785.161,201.552L920.277,336.669Z" style="fill:rgb(178,190,195);"/>
        </g>
        <g transform="matrix(1,0,0,1,-21.225,415.397)">
            <path d="M739.482,98.004C744.787,98.004 749.874,100.111 753.624,103.862C757.375,107.613 759.482,112.7 759.482,118.004C759.482,185.433 759.482,400.231 759.482,400.231L362.968,400.231L362.968,118.004C362.968,112.7 365.075,107.613 368.825,103.862C372.576,100.111 377.663,98.004 382.968,98.004C450.8,98.004 671.65,98.004 739.482,98.004Z" style="fill:white;"/>
        </g>
        <g transform="matrix(0.751037,0,0,-0.589619,118.499,492.334)">
            <path d="M732.852,98.004C747.56,98.004 759.482,113.191 759.482,131.924L759.482,400.231L362.968,400.231L362.968,131.924C362.968,113.191 374.89,98.004 389.597,98.004L732.852,98.004Z" style="fill:white;"/>
        </g>
        <g transform="matrix(1,0,0,1,-128.302,-11.3204)">
            <rect x="722.484" y="289.713" width="66.106" height="134.112" style="fill:rgb(178,190,195);"/>
        </g>
    </g>
</svg>
