<?xml version="1.0" encoding="UTF-8" standalone="no"?>
<!DOCTYPE svg PUBLIC "-//W3C//DTD SVG 1.1//EN" "http://www.w3.org/Graphics/SVG/1.1/DTD/svg11.dtd">
<svg width="100%" height="100%" viewBox="0 0 1080 1080" version="1.1" xmlns="http://www.w3.org/2000/svg" xmlns:xlink="http://www.w3.org/1999/xlink" xml:space="preserve" xmlns:serif="http://www.serif.com/" style="fill-rule:evenodd;clip-rule:evenodd;stroke-linejoin:round;stroke-miterlimit:2;">
    <g id="图层1" transform="matrix(1,0,0,1,-5.66772,10.5085)">
        <ellipse cx="545.668" cy="529.492" rx="288.013" ry="292.207" style="fill:white;"/>
        <path d="M545.668,195.618C727.455,195.618 875.347,345.057 875.347,529.492C875.347,713.927 727.455,863.365 545.668,863.365C363.88,863.365 215.988,713.927 215.988,529.492C215.988,345.057 363.88,195.618 545.668,195.618ZM545.668,237.285C386.709,237.285 257.655,368.218 257.655,529.492C257.655,690.765 386.709,821.698 545.668,821.698C704.626,821.698 833.68,690.765 833.68,529.492C833.68,368.218 704.626,237.285 545.668,237.285Z" style="fill:rgb(45,52,54);"/>
        <g transform="matrix(1.18774,0,0,1,-210.874,465.448)">
            <path d="M635.464,113.136C716.011,113.136 785.402,179.015 816.4,273.508C772.185,329.834 709.591,364.998 640.236,364.998C567.379,364.998 501.983,326.194 457.517,264.816C489.834,175 557.41,113.136 635.464,113.136Z" style="fill:rgb(45,52,54);"/>
        </g>
        <g transform="matrix(0.791781,0,0,0.791781,112.089,264.514)">
            <circle cx="545.359" cy="243.122" r="153.542" style="fill:rgb(45,52,54);"/>
        </g>
    </g>
</svg>
