<?xml version="1.0" encoding="UTF-8" standalone="no"?>
<!DOCTYPE svg PUBLIC "-//W3C//DTD SVG 1.1//EN" "http://www.w3.org/Graphics/SVG/1.1/DTD/svg11.dtd">
<svg width="100%" height="100%" viewBox="0 0 100 100" version="1.1" xmlns="http://www.w3.org/2000/svg" xmlns:xlink="http://www.w3.org/1999/xlink" xml:space="preserve" xmlns:serif="http://www.serif.com/" style="fill-rule:evenodd;clip-rule:evenodd;stroke-linejoin:round;stroke-miterlimit:2;">
    <g id="图层1" transform="matrix(1,0,0,1,-4.57764,-0.143998)">
        <g transform="matrix(1,0,0,1,-9.49809,0.186172)">
            <path d="M53.903,81.146L36.039,81.146C33.481,81.146 31.405,79.069 31.405,76.511L31.405,19.665C31.405,17.107 33.481,15.03 36.039,15.03L73.116,15.03C75.674,15.03 77.751,17.107 77.751,19.665L77.751,41.406L55.234,72.965C55.042,73.235 54.918,73.548 54.874,73.877L53.903,81.146ZM77.751,65.869L77.751,76.511C77.751,79.069 75.674,81.146 73.116,81.146L66.851,81.146L77.751,65.869ZM77.751,44.91L77.751,62.365L66.417,78.251L58.164,72.363L77.751,44.91ZM56.89,74.155L65.137,80.039L62.925,81.146L55.956,81.146L56.89,74.155ZM70.464,25.712C70.464,24.157 69.201,22.894 67.645,22.894L41.51,22.894C39.955,22.894 38.692,24.157 38.692,25.712C38.692,27.268 39.955,28.531 41.51,28.531L67.645,28.531C69.201,28.531 70.464,27.268 70.464,25.712ZM70.464,48.267C70.464,46.711 69.201,45.448 67.645,45.448L41.51,45.448C39.955,45.448 38.692,46.711 38.692,48.267C38.692,49.822 39.955,51.085 41.51,51.085L67.645,51.085C69.201,51.085 70.464,49.822 70.464,48.267ZM70.464,36.989C70.464,35.434 69.201,34.171 67.645,34.171L41.51,34.171C39.955,34.171 38.692,35.434 38.692,36.989C38.692,38.545 39.955,39.808 41.51,39.808L67.645,39.808C69.201,39.808 70.464,38.545 70.464,36.989Z" style="fill:rgb(45,52,54);"/>
            <g transform="matrix(0.814049,0.580796,-0.580796,0.814049,66.6742,-2.11554)">
                <path d="M36.329,65.572L36.329,20.486L46.467,20.486L46.467,65.572L36.329,65.572ZM46.463,67.77L41.398,77.338L36.332,67.77L46.463,67.77ZM36.329,18.288L36.329,14.161C36.329,12.762 37.465,11.627 38.863,11.627L43.933,11.627C45.331,11.627 46.467,12.762 46.467,14.161L46.467,18.288L36.329,18.288Z" style="fill:rgb(253,203,110);"/>
            </g>
        </g>
        <g id="图层3">
        </g>
    </g>
    <g id="图层2">
    </g>
</svg>
