<?xml version="1.0" encoding="UTF-8" standalone="no"?>
<!DOCTYPE svg PUBLIC "-//W3C//DTD SVG 1.1//EN" "http://www.w3.org/Graphics/SVG/1.1/DTD/svg11.dtd">
<svg width="100%" height="100%" viewBox="0 0 1080 1080" version="1.1" xmlns="http://www.w3.org/2000/svg" xmlns:xlink="http://www.w3.org/1999/xlink" xml:space="preserve" xmlns:serif="http://www.serif.com/" style="fill-rule:evenodd;clip-rule:evenodd;stroke-linejoin:round;stroke-miterlimit:2;">
    <g id="图层2" transform="matrix(1,0,0,1,-46.0866,-87.3485)">
        <g transform="matrix(0.888075,-0.459699,0.459699,0.888075,-200.468,344.496)">
            <g id="图层1">
                <g transform="matrix(1.09896,-5.55112e-17,0,0.983957,-198.331,29.4967)">
                    <path d="M827.835,590.11C840.873,590.012 846.146,605.214 845.187,613.64C821.552,821.339 657.906,925.718 537.975,810.781C400.227,678.768 425.491,363.592 581.891,284.63C688.342,230.885 806.27,316.738 839.276,476.678C841.051,485.282 837.774,503.322 825.171,505.276C813.268,507.121 803.409,490.924 801.704,482.993C766.594,319.69 632.846,255.152 544.391,368.636C460.856,475.809 467.468,678.934 556.897,772.851C653.602,874.408 785.847,785.313 807.201,611.426C807.971,605.151 813.73,590.216 827.835,590.11ZM808.569,528.476C821.721,541.149 834.872,553.823 848.024,566.496L810.051,570.875L808.569,528.476Z" style="fill:rgb(253,203,110);"/>
                </g>
                <g transform="matrix(1.52704,0,-5.55112e-17,0.929871,-329.754,60.7125)">
                    <path d="M624.589,591.842C636.198,591.659 637.46,613.317 636.795,620.633C632.499,667.908 622.165,708.611 608.77,736.612C593.114,769.34 573.067,786.487 552.183,786.487C531.3,786.487 511.252,769.34 495.596,736.612C477.794,699.397 465.397,639.743 465.397,572.044C465.397,504.344 477.794,444.69 495.596,407.476C511.252,374.747 531.3,357.6 552.183,357.6C573.067,357.6 593.114,374.747 608.77,407.476C618.41,427.628 626.465,454.359 631.825,485.386C633.124,492.906 633.016,491.153 633.983,499.145C633.983,499.145 631.808,522.38 622.744,522.681C607.763,523.18 605.779,497.87 604.383,490.619C594.269,438.067 574.675,402.409 552.183,402.409C519.344,402.409 492.683,478.42 492.683,572.044C492.683,665.667 519.344,741.678 552.183,741.678C579.311,741.678 602.223,689.806 609.372,618.985C609.902,613.731 611.008,592.056 624.589,591.842ZM610.29,535.423L637.412,530.825C638.429,544.126 638.969,557.91 638.969,572.044C638.969,573.235 638.965,574.423 638.957,575.609L611.615,580.245C611.66,577.527 611.683,574.793 611.683,572.044C611.683,559.472 611.202,547.218 610.29,535.423Z" style="fill:rgb(253,203,110);"/>
                </g>
                <g transform="matrix(0.803007,-5.55112e-17,0,0.789003,106.376,146.847)">
                    <path d="M580.343,621.644C580.019,628.963 577.313,632.768 570.672,642.544C570.672,642.544 563.462,652.374 559.002,656.474C554.246,660.846 547.398,665.767 542.135,668.776C537.563,671.389 532.529,673.243 527.422,674.527C522.179,675.846 516.26,676.688 510.679,676.688C505.098,676.688 499.178,675.846 493.935,674.527C488.829,673.243 483.794,671.389 479.222,668.776C473.959,665.767 467.111,660.846 462.355,656.474C457.896,652.374 450.685,642.544 450.685,642.544C438.741,624.96 429.469,596.995 429.469,565.007C429.469,533.019 438.741,505.054 450.685,487.47C450.685,487.47 457.896,477.64 462.355,473.541C467.111,469.169 473.959,464.248 479.222,461.239C483.794,458.625 488.829,456.771 493.935,455.487C499.178,454.168 505.098,453.327 510.679,453.327C516.26,453.327 522.179,454.168 527.422,455.487C532.529,456.771 537.563,458.625 542.135,461.239C547.398,464.248 559.002,473.541 559.002,473.541C559.002,473.541 569.53,485.385 571.505,491.1C573.99,498.291 568.423,511.2 562.801,515.078C555.298,520.255 549.965,520.477 538.813,517.681C530.966,515.713 518.97,508.527 518.97,508.527C516.341,506.971 513.558,506.136 510.679,506.136C494.496,506.136 481.357,532.515 481.357,565.007C481.357,597.499 494.496,623.878 510.679,623.878C518.362,623.878 525.36,617.931 530.59,608.207C530.59,608.207 538.598,593.854 556.559,594.983C576.71,596.249 580.71,613.372 580.343,621.644ZM534.51,530.72C535.374,530.531 536.256,530.385 537.153,530.284L586.911,525.056C590.032,537.188 591.888,550.695 591.888,565.007C591.888,569.307 591.721,573.534 591.402,577.672L542.847,582.774C541.42,582.934 540.007,582.974 538.619,582.9C539.516,577.256 540,571.244 540,565.007C540,552.22 537.965,540.379 534.51,530.72Z" style="fill:rgb(253,203,110);"/>
                </g>
            </g>
        </g>
        <path d="M745.847,512.063L560.002,633.964C550.432,640.339 537.488,637.744 531.114,628.175C524.739,618.605 527.334,605.661 536.903,599.286L722.748,477.385L729.22,442.754L833.976,372.978L822.162,436.199L885.054,449.66L780.297,519.437L745.847,512.063Z" style="fill:rgb(45,52,54);"/>
        <path d="M745.847,512.063L780.297,519.437L885.054,449.66L822.162,436.199L833.976,372.978L729.22,442.754L722.748,477.385L536.903,599.286C527.334,605.661 524.739,618.605 531.114,628.175C537.488,637.744 550.432,640.339 560.002,633.964L745.847,512.063Z" style="fill:rgb(45,52,54);"/>
    </g>
</svg>
