<?xml version="1.0" encoding="UTF-8" standalone="no"?>
<!DOCTYPE svg PUBLIC "-//W3C//DTD SVG 1.1//EN" "http://www.w3.org/Graphics/SVG/1.1/DTD/svg11.dtd">
<svg width="100%" height="100%" viewBox="0 0 1080 1080" version="1.1" xmlns="http://www.w3.org/2000/svg" xmlns:xlink="http://www.w3.org/1999/xlink" xml:space="preserve" xmlns:serif="http://www.serif.com/" style="fill-rule:evenodd;clip-rule:evenodd;stroke-linejoin:round;stroke-miterlimit:2;">
    <g transform="matrix(1.29539,0,0,1.29539,-439.61,-142.714)">
        <path d="M736.169,336.459C740.306,329.294 747.952,324.88 756.226,324.88C764.5,324.88 772.145,329.294 776.282,336.459C822.611,416.704 936.637,614.202 982.966,694.447C987.103,701.612 987.103,710.44 982.966,717.606C978.829,724.771 971.184,729.185 962.91,729.185L549.542,729.185C541.268,729.185 533.622,724.771 529.485,717.606C525.348,710.44 525.348,701.612 529.485,694.447C575.814,614.202 689.84,416.704 736.169,336.459Z" style="fill:rgb(255,234,167);"/>
    </g>
    <g transform="matrix(1.04911,0,0,1,-27.0479,-2.32357)">
        <path d="M514.147,445.127C514.891,435.833 531.202,434.452 540,434.452C548.798,434.452 566.167,435.5 566.937,445.127C569.707,479.731 563.879,609.252 556.619,642.077C554.227,652.895 525.716,652.907 523.381,642.077C516.302,609.252 511.377,479.731 514.147,445.127Z" style="fill:rgb(45,52,54);"/>
    </g>
    <path d="M539.804,663.193C548.407,663.193 555.837,665.93 561.703,671.405C567.177,676.879 570.306,683.918 570.306,692.521C570.306,701.124 567.177,708.554 561.703,714.028C555.446,719.503 548.407,722.24 539.804,722.24C531.202,722.24 524.163,719.112 518.688,713.637C512.432,708.163 509.694,701.124 509.694,692.521C509.694,683.918 512.432,676.879 518.688,671.405C524.163,665.93 531.202,663.193 539.804,663.193Z" style="fill:rgb(45,52,54);"/>
</svg>
