<?xml version="1.0" encoding="UTF-8" standalone="no"?>
<!DOCTYPE svg PUBLIC "-//W3C//DTD SVG 1.1//EN" "http://www.w3.org/Graphics/SVG/1.1/DTD/svg11.dtd">
<svg width="100%" height="100%" viewBox="0 0 1080 1080" version="1.1" xmlns="http://www.w3.org/2000/svg" xmlns:xlink="http://www.w3.org/1999/xlink" xml:space="preserve" xmlns:serif="http://www.serif.com/" style="fill-rule:evenodd;clip-rule:evenodd;stroke-linejoin:round;stroke-miterlimit:2;">
    <g id="图层2">
        <g transform="matrix(1,0,0,1,46.4414,-30.1552)">
            <path d="M816.222,312.025L816.222,828.286C816.222,863.902 787.306,892.818 751.689,892.818L235.428,892.818C199.811,892.818 170.895,863.902 170.895,828.286L170.895,312.025C170.895,276.408 199.811,247.492 235.428,247.492L751.689,247.492C787.306,247.492 816.222,276.408 816.222,312.025Z" style="fill:rgb(220,220,220);"/>
        </g>
        <g transform="matrix(1,0,0,0.485387,188.129,443.938)">
            <rect x="293.573" y="299.199" width="116.595" height="563.464" style="fill:rgb(255,234,167);"/>
        </g>
        <g transform="matrix(1,0,0,0.78048,-0.449932,189.372)">
            <rect x="293.573" y="299.199" width="116.595" height="563.464" style="fill:rgb(253,203,110);"/>
        </g>
        <g transform="matrix(1,0,0,0.949618,376.709,43.4624)">
            <rect x="293.573" y="299.199" width="116.595" height="563.464" style="fill:rgb(45,52,54);"/>
        </g>
    </g>
</svg>
