<?xml version="1.0" encoding="UTF-8" standalone="no"?>
<!DOCTYPE svg PUBLIC "-//W3C//DTD SVG 1.1//EN" "http://www.w3.org/Graphics/SVG/1.1/DTD/svg11.dtd">
<svg width="100%" height="100%" viewBox="0 0 1080 1080" version="1.1" xmlns="http://www.w3.org/2000/svg" xmlns:xlink="http://www.w3.org/1999/xlink" xml:space="preserve" xmlns:serif="http://www.serif.com/" style="fill-rule:evenodd;clip-rule:evenodd;stroke-linejoin:round;stroke-miterlimit:2;">
    <g transform="matrix(1,0,0,1.10922,2.90139,-29.5885)">
        <g id="图层2">
            <path d="M800.228,368.282L800.228,368.893L600.375,368.893L600.375,190.02L800.228,368.282ZM801.395,406.457L801.395,815.997C801.395,829.148 789.553,839.824 774.966,839.824L299.232,839.824C284.645,839.824 272.802,829.148 272.802,815.997L272.802,211.01C272.802,197.86 284.645,187.183 299.232,187.183L558.708,187.183L558.708,387.675C558.708,398.048 568.035,406.457 579.541,406.457L801.395,406.457Z" style="fill:rgb(193,55,55);"/>
        </g>
    </g>
    <g transform="matrix(1,0,0,1,-99.9599,149.129)">
        <g id="图层3">
            <g>
                <path d="M444.037,512.197L444.037,363.068L492.357,363.068C510.667,363.068 522.603,363.814 528.164,365.306C536.709,367.544 543.863,372.409 549.628,379.903C555.392,387.397 558.275,397.078 558.275,408.946C558.275,418.101 556.613,425.798 553.29,432.037C549.967,438.277 545.745,443.176 540.625,446.737C535.505,450.297 530.3,452.654 525.01,453.807C517.822,455.231 507.412,455.943 493.781,455.943L474.148,455.943L474.148,512.197L444.037,512.197ZM474.148,388.296L474.148,430.613L490.627,430.613C502.495,430.613 510.43,429.833 514.431,428.274C518.432,426.714 521.569,424.272 523.841,420.949C526.112,417.626 527.248,413.761 527.248,409.353C527.248,403.927 525.655,399.451 522.467,395.925C519.28,392.398 515.245,390.194 510.362,389.313C506.768,388.635 499.545,388.296 488.694,388.296L474.148,388.296Z" style="fill:white;fill-rule:nonzero;"/>
                <path d="M582.892,363.068L637.925,363.068C650.336,363.068 659.796,364.017 666.307,365.916C675.055,368.493 682.549,373.071 688.788,379.649C695.027,386.227 699.774,394.28 703.03,403.809C706.285,413.337 707.912,425.086 707.912,439.056C707.912,451.331 706.386,461.911 703.335,470.795C699.605,481.645 694.281,490.428 687.364,497.142C682.142,502.228 675.089,506.195 666.205,509.043C659.559,511.146 650.675,512.197 639.553,512.197L582.892,512.197L582.892,363.068ZM613.003,388.296L613.003,487.071L635.484,487.071C643.893,487.071 649.963,486.596 653.693,485.647C658.576,484.426 662.628,482.358 665.849,479.441C669.07,476.525 671.698,471.727 673.733,465.047C675.767,458.367 676.784,449.263 676.784,437.734C676.784,426.205 675.767,417.355 673.733,411.184C671.698,405.012 668.85,400.197 665.188,396.739C661.526,393.28 656.88,390.94 651.251,389.72C647.047,388.77 638.807,388.296 626.532,388.296L613.003,388.296Z" style="fill:white;fill-rule:nonzero;"/>
                <path d="M733.649,512.197L733.649,363.068L835.883,363.068L835.883,388.296L763.76,388.296L763.76,423.594L826.015,423.594L826.015,448.822L763.76,448.822L763.76,512.197L733.649,512.197Z" style="fill:white;fill-rule:nonzero;"/>
            </g>
        </g>
    </g>
</svg>
