<?xml version="1.0" encoding="UTF-8" standalone="no"?>
<!DOCTYPE svg PUBLIC "-//W3C//DTD SVG 1.1//EN" "http://www.w3.org/Graphics/SVG/1.1/DTD/svg11.dtd">
<svg width="100%" height="100%" viewBox="0 0 1080 1080" version="1.1" xmlns="http://www.w3.org/2000/svg" xmlns:xlink="http://www.w3.org/1999/xlink" xml:space="preserve" xmlns:serif="http://www.serif.com/" style="fill-rule:evenodd;clip-rule:evenodd;stroke-linejoin:round;stroke-miterlimit:2;">
    <g transform="matrix(1,0,0,1.10922,2.90139,-29.5885)">
        <g id="图层2">
            <path d="M800.228,368.282L800.228,368.893L600.375,368.893L600.375,190.02L800.228,368.282ZM801.395,406.457L801.395,815.997C801.395,829.148 789.553,839.824 774.966,839.824L299.232,839.824C284.645,839.824 272.802,829.148 272.802,815.997L272.802,211.01C272.802,197.86 284.645,187.183 299.232,187.183L558.708,187.183L558.708,387.675C558.708,398.048 568.035,406.457 579.541,406.457L801.395,406.457Z" style="fill:rgb(45,52,54);"/>
        </g>
    </g>
    <g transform="matrix(1,0,0,1,-66.7963,121.255)">
        <g id="图层3">
            <g>
                <path d="M457.362,567.874L457.362,418.745L502.426,418.745L529.485,520.47L556.239,418.745L601.405,418.745L601.405,567.874L573.43,567.874L573.43,450.483L543.828,567.874L514.837,567.874L485.336,450.483L485.336,567.874L457.362,567.874Z" style="fill:white;fill-rule:nonzero;stroke:white;stroke-width:1px;"/>
                <path d="M631.21,418.745L686.244,418.745C698.654,418.745 708.115,419.694 714.625,421.593C723.373,424.17 730.867,428.748 737.106,435.326C743.346,441.904 748.093,449.957 751.348,459.486C754.603,469.014 756.231,480.763 756.231,494.734C756.231,507.008 754.705,517.588 751.653,526.472C747.923,537.322 742.6,546.105 735.682,552.819C730.46,557.905 723.407,561.872 714.523,564.72C707.877,566.823 698.993,567.874 687.871,567.874L631.21,567.874L631.21,418.745ZM661.321,443.973L661.321,542.748L683.802,542.748C692.212,542.748 698.281,542.273 702.011,541.324C706.894,540.103 710.946,538.035 714.167,535.118C717.389,532.202 720.017,527.404 722.051,520.724C724.086,514.044 725.103,504.94 725.103,493.411C725.103,481.882 724.086,473.032 722.051,466.861C720.017,460.689 717.168,455.874 713.506,452.416C709.844,448.957 705.199,446.617 699.57,445.397C695.365,444.447 687.125,443.973 674.851,443.973L661.321,443.973Z" style="fill:white;fill-rule:nonzero;stroke:white;stroke-width:1px;"/>
            </g>
        </g>
    </g>
</svg>
