<?xml version="1.0" encoding="UTF-8" standalone="no"?>
<!DOCTYPE svg PUBLIC "-//W3C//DTD SVG 1.1//EN" "http://www.w3.org/Graphics/SVG/1.1/DTD/svg11.dtd">
<svg width="100%" height="100%" viewBox="0 0 1080 1080" version="1.1" xmlns="http://www.w3.org/2000/svg" xmlns:xlink="http://www.w3.org/1999/xlink" xml:space="preserve" xmlns:serif="http://www.serif.com/" style="fill-rule:evenodd;clip-rule:evenodd;stroke-linejoin:round;stroke-miterlimit:2;">
    <g transform="matrix(0.791781,0,0,0.791781,106.421,275.022)">
        <g id="图层1">
            <circle cx="545.359" cy="243.122" r="153.542" style="fill:rgb(45,52,54);"/>
        </g>
    </g>
    <g transform="matrix(1,0,0,1,-5.66772,10.5085)">
        <ellipse cx="545.668" cy="529.492" rx="288.013" ry="292.207" style="fill:white;"/>
        <path d="M545.668,195.618C727.455,195.618 875.347,345.057 875.347,529.492C875.347,713.927 727.455,863.365 545.668,863.365C363.88,863.365 215.988,713.927 215.988,529.492C215.988,345.057 363.88,195.618 545.668,195.618ZM545.668,237.285C386.709,237.285 257.655,368.218 257.655,529.492C257.655,690.765 386.709,821.698 545.668,821.698C704.626,821.698 833.68,690.765 833.68,529.492C833.68,368.218 704.626,237.285 545.668,237.285Z" style="fill:rgb(45,52,54);"/>
    </g>
    <g id="图层2" transform="matrix(0.954633,0,0,0.954633,24.0488,53.1262)">
        <g transform="matrix(-0.482671,0,0,0.480514,1020.45,115.167)">
            <path d="M837.166,913.346C833.576,912.994 829.889,913.634 826.246,913.817C824.383,914.028 823.149,914.467 822.434,914.039C823.149,914.467 824.383,914.028 825.813,913.901C829.889,913.634 833.576,912.994 837.166,913.346ZM1132.8,832.138C1149.45,835.124 1165.21,838.046 1180.99,840.771C1165.11,838.029 1149.25,835.086 1132.93,832.149C1132.88,832.145 1132.84,832.142 1132.8,832.138Z" style="fill:rgb(48,51,55);fill-rule:nonzero;stroke:rgb(45,52,54);stroke-width:2.18px;"/>
        </g>
        <g transform="matrix(-0.482671,0,0,0.480514,1020.45,115.167)">
            <path d="M704.165,707.7C713.145,707.298 722.128,706.572 730.937,707.499C735.775,708.007 740.321,711.3 744.074,712.936C747.779,704.799 750.801,695.719 755.738,687.838C765.541,672.186 783.737,666.601 801.222,672.785C815.534,677.848 825.66,687.984 833.862,700.303C844.184,715.808 849.363,733.246 850.054,751.54C850.574,765.313 848.089,779.047 840.738,791.359C828.197,812.363 805.429,818.493 784.314,806.112C765.943,795.341 755.082,778.567 749.182,758.707C746.322,749.08 745.745,738.784 743.96,728.822C743.644,727.063 742.851,725.081 741.629,723.841C730.01,712.044 716.247,712.463 701.408,717.072C702.038,714.01 703.067,711.037 704.165,707.7M828.928,792.376C832.255,785.382 837.076,778.684 838.534,771.319C840.403,761.875 840.762,751.756 839.646,742.175C837.372,722.656 829.406,705.343 814.866,691.67C806.24,683.559 796.176,677.771 783.844,679.669C769.387,681.893 761.326,692.027 757.013,705.018C748.879,729.522 753.614,752.669 766.037,774.592C771.88,784.902 779.691,793.474 790.35,799.069C804.457,806.474 817.435,804.343 828.928,792.376Z" style="fill:rgb(249,249,249);fill-rule:nonzero;"/>
        </g>
        <g transform="matrix(-0.482671,0,0,0.480514,1020.45,115.167)">
            <path d="M934.659,970.749C915.168,962.092 896.18,953.289 876.909,945.157C864.817,940.054 852.316,935.913 839.962,931.442C836.97,930.36 833.768,929.324 835.234,925.371C836.558,921.802 839.72,922.748 842.505,923.654C877.357,934.983 911.119,948.933 944.174,964.78C994.37,988.844 1041.28,1018.09 1085.14,1052.29C1086.57,1053.4 1088.1,1054.56 1089.09,1056.03C1090.93,1058.79 1090.6,1061.55 1087.58,1063.29C1084.8,1064.89 1082.21,1064.5 1080.19,1061.64C1078.99,1059.93 1077.77,1058.09 1076.15,1056.84C1036.16,1026.16 993.984,998.975 948.091,977.183C943.503,975.089 939.272,972.988 934.659,970.749Z" style="fill:rgb(248,249,249);fill-rule:nonzero;"/>
        </g>
        <g transform="matrix(-0.482671,0,0,0.480514,1020.45,115.167)">
            <path d="M1136.97,1920.28C1137.26,1920.1 1137.62,1920.17 1137.96,1920.6C1137.64,1920.82 1137.34,1920.68 1136.97,1920.28Z" style="fill:rgb(249,249,249);fill-rule:nonzero;"/>
        </g>
        <g transform="matrix(-0.482671,0,0,0.480514,1020.45,115.167)">
            <path d="M899.506,664.789C918.039,661.121 936.125,657.442 954.239,653.904C961.662,652.453 969.104,650.911 976.613,650.146C982.779,649.518 983.955,651.16 983.71,657.581C982.898,678.881 976.264,698.081 962.476,714.478C948.312,731.322 930.453,741.75 908.108,741.938C879.199,742.182 858.752,727.617 846.144,702.388C841.854,693.803 840.058,683.87 837.861,674.383C836.826,669.914 839.832,667.97 844.417,667.988C854.368,668.028 864.337,667.969 874.269,667.414C882.558,666.951 890.805,665.724 899.506,664.789M961.791,661.222C938.295,666.014 914.799,670.805 891.457,675.566C902.574,693.086 909.451,711.495 899.22,732.298C939.448,738.381 974.484,698.632 974.189,658.36C970.315,659.26 966.459,660.156 961.791,661.222Z" style="fill:rgb(252,252,252);fill-rule:nonzero;"/>
        </g>
        <g transform="matrix(-0.482671,0,0,0.480514,1020.45,115.167)">
            <path d="M1110.73,764.898C1123.17,764.352 1135.15,763.755 1147.14,763.351C1149.02,763.288 1151.26,763.646 1152.73,764.671C1153.7,765.349 1154.41,768.326 1153.82,768.946C1152.41,770.441 1150.23,771.92 1148.27,772.061C1136.64,772.895 1124.91,772.656 1113.37,774.063C1085.96,777.403 1058.48,780.563 1031.32,785.42C977.387,795.063 925.119,810.499 875.481,834.092C850.793,845.827 826.786,858.804 804.63,874.907C800.86,877.647 798.239,881.924 794.779,885.16C793.563,886.298 790.978,887.359 789.82,886.799C788.547,886.184 787.119,883.12 787.646,882.063C789.38,878.582 791.371,874.757 794.341,872.451C802.871,865.827 811.687,859.499 820.82,853.735C871.712,821.613 927.117,800.327 985.342,785.999C1026.45,775.881 1068.1,768.796 1110.73,764.898Z" style="fill:rgb(248,248,249);fill-rule:nonzero;"/>
        </g>
        <g transform="matrix(-0.482671,0,0,0.480514,1020.45,115.167)">
            <path d="M825.813,913.901C824.383,914.028 823.149,914.467 822.434,914.039C820.522,912.895 817.679,911.633 817.309,909.953C816.64,906.925 819.383,905.837 822.194,905.855C831.98,905.918 841.806,905.454 851.543,906.185C910.661,910.621 967.916,924.214 1023.95,942.959C1072.56,959.223 1120.14,978.266 1166.81,999.508C1168.76,1000.4 1171.1,1001.27 1172.24,1002.88C1173.35,1004.46 1173.17,1006.96 1173.56,1009.05C1171.48,1009.39 1168.94,1010.67 1167.38,1009.92C1126.84,990.418 1084.8,974.581 1042.64,959.093C990.8,940.045 937.532,926.253 882.824,918.375C867.676,916.194 852.405,914.836 837.166,913.346C833.576,912.994 829.889,913.634 825.813,913.901Z" style="fill:rgb(248,249,249);fill-rule:nonzero;"/>
        </g>
        <g transform="matrix(-0.482671,0,0,0.480514,1020.45,115.167)">
            <path d="M1132.93,832.149C1149.25,835.086 1165.11,838.029 1180.99,840.771C1184.71,841.412 1187.9,842.521 1187.04,846.873C1186.08,851.694 1182.11,850.342 1178.92,849.706C1168,847.529 1157.18,844.7 1146.17,843.087C1116.91,838.798 1087.45,838.594 1057.94,839.683C1009.83,841.457 962.507,848.319 916.051,860.995C887.294,868.842 858.927,877.847 831.566,889.796C831.109,889.996 830.59,890.387 830.178,890.303C828.009,889.865 824.924,889.997 823.917,888.633C822.027,886.072 824.216,884.012 826.732,882.914C833.745,879.857 840.724,876.705 847.844,873.917C894.694,855.577 943.035,842.787 992.895,836.119C1039.25,829.92 1085.8,828.399 1132.93,832.149Z" style="fill:rgb(249,249,249);fill-rule:nonzero;"/>
        </g>
        <g transform="matrix(-0.482671,0,0,0.480514,1020.45,115.167)">
            <path d="M828.695,792.648C817.435,804.343 804.457,806.474 790.35,799.069C779.691,793.474 771.88,784.902 766.037,774.592C753.614,752.669 748.879,729.522 757.013,705.018C761.326,692.027 769.387,681.893 783.844,679.669C796.176,677.771 806.24,683.559 814.866,691.67C829.406,705.343 837.372,722.656 839.646,742.175C840.762,751.756 840.403,761.875 838.534,771.319C837.076,778.684 832.255,785.382 828.695,792.648Z" style="fill:rgb(50,52,56);fill-rule:nonzero;"/>
        </g>
        <g transform="matrix(-0.482671,0,0,0.480514,1020.45,115.167)">
            <path d="M962.197,661.137C966.459,660.156 970.315,659.26 974.189,658.36C974.484,698.632 939.448,738.381 899.22,732.298C909.451,711.495 902.574,693.086 891.457,675.566C914.799,670.805 938.295,666.014 962.197,661.137Z" style="fill:rgb(51,54,58);fill-rule:nonzero;"/>
        </g>
        <path d="M738.732,751.42C687.031,801.463 617.026,832.207 540,832.207C438.265,832.207 348.78,778.575 297.536,697.683C301.381,694.739 305.255,691.833 309.191,689.016C317.167,683.308 325.299,677.774 333.683,672.688C341.464,667.967 349.583,663.773 357.713,659.659C364.51,656.22 371.551,653.262 378.437,649.992C379.033,649.709 379.719,648.604 379.609,648.023C378.974,644.679 377.877,641.413 377.375,638.055C376.323,631.015 374.977,623.949 374.78,616.866C374.46,605.369 374.701,593.838 375.22,582.344C375.55,575.022 376.812,567.741 377.65,560.441C377.84,558.786 377.914,557.113 378.199,555.476C379.065,550.5 380.021,545.539 380.919,540.569C381.79,535.747 382.498,530.892 383.522,526.103C384.885,519.723 386.459,513.386 387.99,507.042C389.063,502.601 390.202,498.175 391.337,493.749C392.333,489.866 393.314,485.978 394.399,482.119C395.296,478.928 396.373,475.788 397.305,472.606C398.685,467.894 399.982,463.159 401.358,458.446C403.353,451.607 405.438,444.793 407.366,437.935C407.806,436.372 407.395,434.737 405.434,434.456C401.468,433.887 398.86,431.07 396.074,428.755C393.162,426.335 390.466,423.512 388.232,420.461C385.018,416.073 382.089,411.44 379.455,406.683C377.433,403.03 375.77,399.116 374.458,395.151C372.656,389.706 370.866,384.178 369.951,378.545C369.127,373.469 369.108,368.179 369.439,363.028C369.749,358.188 370.29,353.153 371.954,348.653C375.213,339.835 380.459,332.245 387.844,326.045C394.664,320.32 402.554,317.235 411.016,315.719C417.324,314.59 423.872,315.44 430.012,317.25C435.68,318.92 441.272,321.123 446.541,323.789C454.994,328.066 462.422,333.908 469.145,340.359C471.153,339.556 472.962,338.752 474.827,338.104C479.537,336.468 484.201,334.631 489.017,333.384C493.926,332.113 498.967,331.25 503.999,330.57C510.459,329.698 516.956,328.816 523.459,328.608C532.719,328.311 541.998,328.339 551.213,329.9C555.991,330.709 560.891,330.789 565.691,331.499C570.76,332.248 575.784,333.311 580.811,334.317C585.709,335.297 590.586,336.378 595.608,337.443C598.259,330.878 601.269,324.142 606.23,318.251C610.184,313.556 614.9,309.855 620.083,307.225C628.545,302.931 637.668,301.632 647.215,304.393C655.856,306.892 662.077,312.289 666.437,319.655C670.55,326.604 672.472,334.451 672.391,342.575C672.326,349.18 672.127,355.818 671.364,362.37C670.831,366.939 669.177,371.372 668.144,375.893C666.741,382.039 664.391,387.809 661.577,393.429C661.255,394.072 661.375,395.271 661.784,395.886C666.442,402.893 671.206,409.83 675.919,416.801C678.913,421.229 680.27,426.319 680.004,431.459C679.595,439.363 679.505,447.205 680.536,455.052C676.235,455.034 671.9,454.685 667.648,455.13C665.312,455.375 663.118,456.957 661.307,457.743C659.519,453.833 658.06,449.47 655.677,445.683C650.945,438.162 642.163,435.478 633.723,438.45C626.815,440.883 621.928,445.753 617.969,451.673C612.986,459.123 610.487,467.502 610.153,476.293C609.902,482.911 611.102,489.51 614.65,495.426C620.703,505.519 631.693,508.464 641.884,502.515C650.751,497.339 655.994,489.28 658.841,479.736C660.222,475.111 660.5,470.163 661.362,465.376C661.514,464.531 661.897,463.579 662.487,462.983C662.488,462.982 662.49,462.98 662.491,462.979C668.098,457.314 674.74,457.516 681.94,459.898C684.19,462.855 686.002,465.866 688.272,468.482C692.384,473.22 696.72,477.768 701.059,482.304C703.62,484.981 706.413,487.437 709.019,490.073C713.389,494.491 717.693,498.973 722.104,503.511C722.729,502.97 723.217,502.577 723.673,502.151C730.052,496.197 737.501,491.669 745.872,489.744C753.26,488.045 761.091,488.296 768.711,487.53C771.856,487.213 775.003,486.662 778.066,485.891C780.178,485.36 781.511,486.376 782.205,487.815C782.514,488.457 781.399,489.998 780.626,490.862C780.103,491.446 779.074,491.742 778.231,491.849C776.017,492.132 773.773,492.179 771.554,492.432C766.422,493.018 761.305,494.119 756.169,494.195C746.82,494.334 738.813,497.667 731.468,503.061C729.519,504.492 727.623,505.997 725.706,507.465C728.121,510.552 728.123,510.557 731.656,509.271C732.174,509.083 732.651,508.784 733.17,508.601C737.708,507.004 742.182,505.166 746.814,503.908C751.174,502.723 755.687,502.058 760.161,501.34C764.629,500.624 769.118,499.921 773.626,499.592C777.545,499.306 781.504,499.551 785.445,499.56C790.754,499.572 796.063,499.528 801.371,499.623C803.289,499.657 804.78,500.653 805.08,502.664C805.303,504.152 803.407,505.687 801.451,505.814C800.89,505.851 800.325,505.823 799.762,505.823C788.983,505.823 778.205,505.792 767.427,505.85C765.201,505.862 762.928,505.979 760.761,506.439C756.276,507.39 751.798,508.443 747.407,509.753C742.04,511.353 736.764,513.26 731.764,514.929L732.496,524.54C739.178,525.853 745.736,527.02 752.234,528.46C757.249,529.571 762.235,530.869 767.144,532.376C770.984,533.554 774.703,535.136 778.445,536.617C782.945,538.398 787.157,540.736 790.383,544.374C791.055,545.131 791,547.193 790.448,548.201C789.677,549.607 788.074,549.17 786.852,548.316C786.201,547.861 785.694,547.199 785.036,546.757C776.675,541.143 767.247,538.116 757.608,535.618C752.851,534.386 748.107,533.084 743.307,532.039C740.19,531.36 736.984,531.088 733.818,530.633L733.606,531.449C735.564,532.212 737.554,532.904 739.475,533.752C749.811,538.314 759.825,543.465 769.305,549.641C775.256,553.517 780.728,557.915 785.676,562.998C787.136,564.497 786.637,565.739 785.505,566.849C784.507,567.826 783.252,568.413 781.948,567.042C776.135,560.93 769.321,556.09 762.151,551.711C759.704,550.217 757.299,548.635 754.754,547.325C749.813,544.782 744.806,542.364 739.787,539.976C737.81,539.035 735.728,538.314 733.591,537.451C733.801,543.183 733.52,548.511 732.44,553.923C730.933,561.47 727.188,567.845 723.196,574.101C716.645,584.368 706.828,591.414 697.166,598.374C690.094,603.468 681.712,606.276 673.087,607.566C666.235,608.591 659.228,609.171 652.311,609.014C645.106,608.851 637.896,607.768 630.747,606.7C626.38,606.048 621.987,605.037 617.846,603.532C610.16,600.74 602.582,597.62 595.084,594.352C587.356,590.984 579.763,587.304 572.148,583.683C571.154,583.21 570.379,582.278 569.502,581.559C578.725,577.466 587.89,573.236 597.191,569.328C603.028,566.876 609.062,564.887 615.025,562.738C616.468,562.218 618.014,561.72 617.307,559.821C616.667,558.106 615.142,558.561 613.797,558.996C596.975,564.44 580.679,571.143 564.725,578.757C540.496,590.321 517.856,604.372 496.685,620.807C495.995,621.342 495.256,621.898 494.78,622.605C493.887,623.93 494.048,625.258 495.506,626.094C496.85,626.864 498.1,626.676 499.071,625.303C499.652,624.481 500.24,623.594 501.023,622.995C501.041,622.982 501.058,622.968 501.055,622.971C520.362,608.228 540.703,595.18 562.954,584.883C563.73,585.952 564.335,586.809 564.674,587.76C566.022,591.549 567.238,595.386 568.597,599.171C570.328,603.994 572.168,608.779 573.929,613.592C575.526,617.956 577.086,622.333 578.653,626.708C579.692,629.61 580.724,632.515 581.741,635.424C583.072,639.231 584.331,643.064 585.746,646.84C586.113,647.82 586.752,648.907 587.589,649.472C588.784,650.279 589.988,651.071 591.203,651.844C650.731,662.703 702.866,699.303 738.732,751.42ZM466.76,481.968C465.85,481.938 464.772,482.11 464.061,482.603C463.591,482.928 463.251,484.358 463.533,484.656C464.213,485.375 465.266,486.085 466.215,486.153C471.826,486.554 477.49,486.439 483.06,487.115C496.289,488.72 509.553,490.239 522.662,492.572C548.693,497.206 573.922,504.623 597.88,515.96C609.797,521.599 621.384,527.835 632.078,535.572C633.898,536.889 635.163,538.944 636.833,540.499C637.42,541.046 638.667,541.556 639.227,541.286C639.841,540.991 640.53,539.519 640.276,539.011C639.439,537.338 638.478,535.5 637.045,534.392C632.927,531.209 628.672,528.169 624.264,525.399C599.7,509.964 572.958,499.735 544.854,492.851C525.01,487.989 504.911,484.585 484.555,482.718C478.326,482.449 472.545,482.162 466.76,481.968ZM450.418,519.17C448.626,519.477 447.085,520.01 447.503,522.102C447.965,524.418 449.879,523.768 451.419,523.463C456.691,522.417 461.914,521.057 467.225,520.283C481.351,518.221 495.57,518.123 509.815,518.646C533.035,519.499 555.876,522.796 578.298,528.887C592.179,532.658 605.87,536.986 619.077,542.727C619.298,542.823 619.548,543.01 619.747,542.97C620.794,542.76 622.283,542.823 622.769,542.168C623.681,540.937 622.625,539.947 621.41,539.42C618.026,537.951 614.657,536.436 611.22,535.097C588.607,526.284 565.274,520.138 541.208,516.934C518.834,513.955 496.364,513.225 473.837,514.994L473.682,515.021L473.617,515.026C465.739,516.438 458.087,517.852 450.418,519.17ZM559.866,429.377C556.283,428.68 552.691,427.939 549.067,427.572C546.091,427.27 545.523,428.059 545.642,431.144C546.033,441.379 549.236,450.605 555.891,458.484C562.727,466.578 571.347,471.588 582.133,471.679C596.086,471.796 605.955,464.797 612.041,452.675C614.111,448.549 614.978,443.777 616.039,439.218C616.538,437.07 615.087,436.136 612.874,436.145C608.071,436.164 603.259,436.136 598.466,435.869C594.515,435.649 590.584,435.071 586.495,434.63C577.339,432.845 568.609,431.077 559.866,429.377ZM623.485,554.376C624.407,553.826 625.78,553.219 625.959,552.412C626.281,550.957 624.957,550.435 623.6,550.443C618.877,550.474 614.134,550.251 609.435,550.602C580.9,552.734 553.265,559.265 526.221,568.272C502.756,576.087 479.791,585.237 457.263,595.445C456.321,595.872 455.194,596.294 454.646,597.065C454.107,597.823 454.195,599.024 454.009,600.031C455.013,600.192 456.236,600.808 456.989,600.447C476.557,591.077 496.85,583.467 517.196,576.025C542.219,566.872 567.931,560.245 594.336,556.459C601.648,555.411 609.019,554.759 616.374,554.043C617.689,553.914 619.032,554.047 620.462,554.185C620.917,554.229 621.38,554.273 621.854,554.309C621.993,554.32 622.129,554.337 622.259,554.357C622.775,554.434 623.209,554.54 623.485,554.376Z" style="fill:rgb(48,51,55);stroke:rgb(45,52,54);stroke-width:1.05px;"/>
    </g>
</svg>
