<?xml version="1.0" encoding="UTF-8" standalone="no"?>
<!DOCTYPE svg PUBLIC "-//W3C//DTD SVG 1.1//EN" "http://www.w3.org/Graphics/SVG/1.1/DTD/svg11.dtd">
<svg width="100%" height="100%" viewBox="0 0 1080 1080" version="1.1" xmlns="http://www.w3.org/2000/svg" xmlns:xlink="http://www.w3.org/1999/xlink" xml:space="preserve" xmlns:serif="http://www.serif.com/" style="fill-rule:evenodd;clip-rule:evenodd;stroke-linejoin:round;stroke-miterlimit:2;">
    <g id="图层1">
        <g transform="matrix(0.97809,0,0,0.97809,-32.2011,44.4169)">
            <circle cx="585.019" cy="506.685" r="320.477" style="fill:white;"/>
            <path d="M585.019,122.308C797.163,122.308 969.396,294.541 969.396,506.685C969.396,718.828 797.163,891.062 585.019,891.062C372.876,891.062 200.642,718.828 200.642,506.685C200.642,294.541 372.876,122.308 585.019,122.308ZM585.019,186.208C408.143,186.208 264.542,329.809 264.542,506.685C264.542,683.561 408.143,827.162 585.019,827.162C761.895,827.162 905.496,683.561 905.496,506.685C905.496,329.809 761.895,186.208 585.019,186.208Z" style="fill:rgb(178,190,195);"/>
        </g>
        <g transform="matrix(1.32204,0,0,1.32204,-128.835,-83.5535)">
            <circle cx="505.913" cy="471.662" r="34.087" style="fill:rgb(45,52,54);"/>
        </g>
        <path d="M515,279.263C515,265.465 526.202,254.263 540,254.263C553.798,254.263 565,265.465 565,279.263L565,540C565,553.798 553.798,565 540,565C526.202,565 515,553.798 515,540L515,279.263Z" style="fill:rgb(45,52,54);"/>
        <path d="M727.714,515C741.511,515 752.714,526.202 752.714,540C752.714,553.798 741.511,565 727.714,565L540,565C526.202,565 515,553.798 515,540C515,526.202 526.202,515 540,515L727.714,515Z" style="fill:rgb(45,52,54);"/>
    </g>
</svg>
