<?xml version="1.0" encoding="UTF-8" standalone="no"?>
<!DOCTYPE svg PUBLIC "-//W3C//DTD SVG 1.1//EN" "http://www.w3.org/Graphics/SVG/1.1/DTD/svg11.dtd">
<svg width="100%" height="100%" viewBox="0 0 1080 1080" version="1.1" xmlns="http://www.w3.org/2000/svg" xmlns:xlink="http://www.w3.org/1999/xlink" xml:space="preserve" xmlns:serif="http://www.serif.com/" style="fill-rule:evenodd;clip-rule:evenodd;stroke-linejoin:round;stroke-miterlimit:2;">
    <g id="图层4">
        <path d="M287.809,876.831L287.809,162.782L507.999,162.782L507.999,279.051L792.191,279.051L792.191,876.831L287.809,876.831Z" style="fill:rgb(178,190,195);"/>
        <g transform="matrix(0.8,0,0,0.889435,118.56,96.947)">
            <rect x="397.139" y="736.106" width="259.322" height="140.725" style="fill:rgb(45,52,54);"/>
        </g>
        <g transform="matrix(0.954257,0,0,0.846049,24.7011,45.1544)">
            <g transform="matrix(0.899522,0,0,0.986494,20.5388,-5.90313)">
                <rect x="350.751" y="350.206" width="111.42" height="126.88" style="fill:white;"/>
            </g>
            <g transform="matrix(0.899522,0,0,0.986494,174.38,-5.90313)">
                <rect x="350.751" y="350.206" width="111.42" height="126.88" style="fill:white;"/>
            </g>
            <g transform="matrix(0.899522,0,0,0.986494,328.221,-5.90313)">
                <rect x="350.751" y="350.206" width="111.42" height="126.88" style="fill:white;"/>
            </g>
        </g>
        <g transform="matrix(0.954257,0,0,0.846049,24.7011,179.563)">
            <g transform="matrix(0.899522,0,0,0.986494,20.5388,-5.90313)">
                <rect x="350.751" y="350.206" width="111.42" height="126.88" style="fill:white;"/>
            </g>
            <g transform="matrix(0.899522,0,0,0.986494,174.38,-5.90313)">
                <rect x="350.751" y="350.206" width="111.42" height="126.88" style="fill:white;"/>
            </g>
            <g transform="matrix(0.899522,0,0,0.986494,328.221,-5.90313)">
                <rect x="350.751" y="350.206" width="111.42" height="126.88" style="fill:white;"/>
            </g>
        </g>
        <g transform="matrix(0.954257,0,0,0.846049,24.7011,313.972)">
            <g transform="matrix(0.899522,0,0,0.986494,20.5388,-5.90313)">
                <rect x="350.751" y="350.206" width="111.42" height="126.88" style="fill:white;"/>
            </g>
            <g transform="matrix(0.899522,0,0,0.986494,174.38,-5.90313)">
                <rect x="350.751" y="350.206" width="111.42" height="126.88" style="fill:white;"/>
            </g>
            <g transform="matrix(0.899522,0,0,0.986494,328.221,-5.90313)">
                <rect x="350.751" y="350.206" width="111.42" height="126.88" style="fill:white;"/>
            </g>
        </g>
    </g>
</svg>
